
<svg width="1028px" height="1098px" viewBox="0 0 1028 1051.07239" version="1.1" xmlns="http://www.w3.org/2000/svg" xmlns:xlink="http://www.w3.org/1999/xlink">
    <g id="Front-Page-Images" stroke="none" stroke-width="1" fill="none" fill-rule="evenodd">
        <g id="undraw_visionary_technology_re_jfp7" transform="translate(0, 0)" fill-rule="nonzero">
            <path d="M489.875276,297.102846 C681.817728,297.102846 837.417908,452.702941 837.417908,644.645422 C837.417908,836.587903 681.817728,992.187998 489.875276,992.187998 C297.932823,992.187998 32.2918478,801.883573 142.3327,644.645422 C252.373551,487.407271 297.932823,297.102846 489.875276,297.102846 Z" id="Path" fill="#F2F2F2"></path>
            <path d="M955.035697,313.635983 C951.919031,313.635983 949.384598,316.170416 949.384598,319.287082 L949.384598,500.122243 C949.384598,503.238909 951.919031,505.773342 955.035697,505.773342 C958.152362,505.773342 960.686795,503.238909 960.686795,500.122243 L960.686795,319.287082 C960.686795,316.170416 958.152362,313.635983 955.035697,313.635983 Z" id="Path" fill="#3F3D56"></path>
            <path d="M5.6510988,178.009584 C2.53443304,178.009584 0,180.544017 0,183.660683 L0,228.869445 C0,231.986111 2.53443304,234.520544 5.6510988,234.520544 C8.76776455,234.520544 11.3021976,231.986111 11.3021976,228.869445 L11.3021976,183.660654 C11.3021976,180.543989 8.76776455,178.009584 5.6510988,178.009584 Z" id="Path" fill="#3F3D56"></path>
            <path d="M5.6510988,313.635983 C2.53443304,313.635983 0,316.170416 0,319.287082 L0,406.879113 C0,409.995779 2.53443304,412.530212 5.6510988,412.530212 C8.76776455,412.530212 11.3021976,409.995779 11.3021976,406.879113 L11.3021976,319.287082 C11.3021976,316.170416 8.76776455,313.635983 5.6510988,313.635983 Z" id="Path" fill="#3F3D56"></path>
            <path d="M5.6510988,437.960157 C2.53443304,437.960157 0,440.49459 0,443.611256 L0,531.203287 C0,534.319953 2.53443304,536.854386 5.6510988,536.854386 C8.76776455,536.854386 11.3021976,534.319953 11.3021976,531.203287 L11.3021976,443.611256 C11.3021976,440.49459 8.76776455,437.960157 5.6510988,437.960157 Z" id="Path" fill="#3F3D56"></path>
            <path d="M512.479671,0 C509.363005,0 506.828572,2.53443304 506.828572,5.6510988 L506.828572,93.2431301 C506.828572,96.3597959 509.363005,98.8942289 512.479671,98.8942289 C515.596337,98.8942289 518.13077,96.3597959 518.13077,93.2431301 L518.13077,5.6510988 C518.13077,2.53443304 515.596337,0 512.479671,0 Z" id="Path" fill="#3F3D56"></path>
            <path d="M337.919263,621.218735 L142.3327,621.218735 L142.3327,615.567637 L337.919207,615.567637 C354.909744,615.567637 368.732586,601.74341 368.732586,584.751489 L368.732586,452.508063 L374.383685,452.508063 L374.383685,584.751489 C374.383685,604.858691 358.02641,621.218735 337.919207,621.218735 L337.919263,621.218735 Z" id="Path" fill="#004671"></path>
            <rect id="Rectangle" fill="#004671" x="266.271949" y="907.885076" width="444.843336" height="5.6510988"></rect>
            <g id="Group" transform="translate(732.4938, 302.2164)">
                <path d="M260.85975,281.21529 L23.254215,281.21529 C10.4316176,281.21529 0,270.783673 0,257.961075 L0,23.254215 C0,10.4316176 10.4316176,0 23.254215,0 L260.85975,0 C273.682347,0 284.113965,10.4316176 284.113965,23.254215 L284.113965,257.961075 C284.113965,270.783673 273.682347,281.21529 260.85975,281.21529 Z" id="Path" fill="#E6E6E6"></path>
                <path d="M67.5037879,6.92841666 C34.048944,6.92841666 6.92847317,34.0489157 6.92847317,67.5037596 L6.92847317,252.981271 C6.92847317,264.747847 16.4672171,274.286535 28.2337373,274.286535 L173.523177,274.286535 C230.774006,274.286535 277.185011,227.875529 277.185011,170.624671 L277.185011,28.2336807 C277.185011,16.4671041 267.646267,6.92841666 255.879747,6.92841666 L67.5037879,6.92841666 L67.5037879,6.92841666 L67.5037879,6.92841666 Z" id="Path" fill="#FFFFFF"></path>
                <g transform="translate(21.6143, 66.2941)" fill="#E6E6E6" id="Path">
                    <path d="M184.080135,8.84142662 L56.3070681,8.84142662 C53.8693818,8.84142662 51.8859309,6.85789094 51.8859309,4.42026122 C51.8859309,1.9826315 53.8694666,0 56.3070681,0 L184.080135,0 C186.517822,0 188.500397,1.98257499 188.500397,4.42026122 C188.500397,6.85794746 186.517822,8.84142662 184.080135,8.84142662 Z"></path>
                    <path d="M184.080135,103.111927 L56.3070681,103.111927 C53.8693818,103.111927 51.8859309,101.128391 51.8859309,98.6907611 C51.8859309,96.2531314 53.8694666,94.2704999 56.3070681,94.2704999 L184.080135,94.2704999 C186.517822,94.2704999 188.500397,96.2530749 188.500397,98.6907611 C188.500397,101.128447 186.517822,103.111927 184.080135,103.111927 Z"></path>
                    <path d="M235.966151,56.0075598 L4.42113714,56.0075598 C1.98345091,56.0075598 0,54.0240242 0,51.5863944 C0,49.1487647 1.98353568,47.1661332 4.42113714,47.1661332 L235.966151,47.1661332 C238.403837,47.1661332 240.386412,49.1487082 240.386412,51.5863944 C240.386412,54.0240807 238.403837,56.0075598 235.966151,56.0075598 L235.966151,56.0075598 Z"></path>
                </g>
                <path d="M259.944667,207.736426 L176.298205,207.736426 C173.860519,207.736426 171.877068,205.75289 171.877068,203.315261 C171.877068,200.877631 173.860604,198.895 176.298205,198.895 L259.944667,198.895 C262.382354,198.895 264.364929,200.877575 264.364929,203.315261 C264.364929,205.752947 262.382354,207.736426 259.944667,207.736426 Z" id="Path" fill="#E6E6E6"></path>
            </g>
            <g id="Group" transform="translate(287.1317, 827.7685)">
                <path d="M207.140179,223.303875 L18.4654174,223.303875 C8.28340887,223.303875 0,215.020466 0,204.838458 L0,18.4654174 C0,8.28340887 8.28340887,0 18.4654174,0 L207.140263,0 C217.322272,0 225.605681,8.28340887 225.605681,18.4654174 L225.605681,204.838458 C225.605681,215.020466 217.322272,223.303875 207.140263,223.303875 L207.140207,223.303875 L207.140179,223.303875 Z" id="Path" fill="#E6E6E6"></path>
                <path d="M53.6025652,5.50159898 C27.0372018,5.50159898 5.50168374,27.0370888 5.50168374,53.6025087 L5.50168374,200.884186 C5.50168374,210.227685 13.0760492,217.80205 22.4195195,217.80205 L137.789131,217.80205 C183.250187,217.80205 220.103658,180.948579 220.103658,135.48758 L220.103658,22.4195477 C220.103658,13.0760492 212.529321,5.50159898 203.185794,5.50159898 L53.6025369,5.50159898 L53.6025935,5.50159898 L53.6025652,5.50159898 Z" id="Path" fill="#FFFFFF"></path>
                <g transform="translate(17.1632, 52.6419)" fill="#E6E6E6" id="Path">
                    <path d="M146.172056,7.02067085 L44.7116632,7.02067085 C42.7759923,7.02067085 41.2009463,5.44562484 41.2009463,3.50995397 C41.2009463,1.5742831 42.7759641,0 44.7116632,0 L146.172056,0 C148.107727,0 149.682038,1.5742831 149.682038,3.50995397 C149.682038,5.44562484 148.107727,7.02067085 146.172056,7.02067085 Z"></path>
                    <path d="M146.172056,81.8778945 L44.7116632,81.8778945 C42.7759923,81.8778945 41.2009463,80.3028485 41.2009463,78.3671777 C41.2009463,76.4315068 42.7759641,74.8572237 44.7116632,74.8572237 L146.172056,74.8572237 C148.107727,74.8572237 149.682038,76.4315068 149.682038,78.3671777 C149.682038,80.3028485 148.107727,81.8778945 146.172056,81.8778945 Z"></path>
                    <path d="M187.373031,44.473865 L3.51071687,44.473865 C1.575046,44.473865 0,42.898819 0,40.9631481 C0,39.0274772 1.57501775,37.4531941 3.51071687,37.4531941 L187.373031,37.4531941 C189.308702,37.4531941 190.883013,39.0274772 190.883013,40.9631481 C190.883013,42.898819 189.308702,44.473865 187.373031,44.473865 Z"></path>
                </g>
                <path d="M206.413532,164.956648 L139.992636,164.956648 C138.056965,164.956648 136.481919,163.381602 136.481919,161.445931 C136.481919,159.51026 138.056937,157.935977 139.992636,157.935977 L206.413532,157.935977 C208.349203,157.935977 209.923514,159.51026 209.923514,161.445931 C209.923514,163.381602 208.349203,164.956648 206.413532,164.956648 Z" id="Path" fill="#E6E6E6"></path>
            </g>
            <g id="Group" transform="translate(209.2107, 285.939)">
                <path d="M153.189252,165.142964 L13.6559933,165.142964 C6.12593237,165.142964 0,159.017032 0,151.486999 L0,13.655965 C0,6.12593237 6.12593237,0 13.655965,0 L153.189252,0 C160.719284,0 166.845217,6.12593237 166.845217,13.655965 L166.845217,151.486999 C166.845217,159.017032 160.719284,165.142964 153.189252,165.142964 L153.189223,165.142964 L153.189252,165.142964 Z" id="Path" fill="#E6E6E6"></path>
                <path d="M39.6414691,4.06864986 C19.9952264,4.06864986 4.06876288,19.9950851 4.06876288,39.6413843 L4.06876288,148.56264 C4.06876288,155.472578 9.67032979,161.074145 16.5802391,161.074145 L101.901122,161.074145 C135.521571,161.074145 162.776312,133.819404 162.776312,100.198983 L162.776312,16.5802391 C162.776312,9.67030154 157.174745,4.06864986 150.264808,4.06864986 L39.6414409,4.06864986 L39.6414409,4.06864986 L39.6414691,4.06864986 Z" id="Path" fill="#FFFFFF"></path>
                <g transform="translate(12.6929, 38.931)" fill="#E6E6E6" id="Path">
                    <path d="M108.10066,5.1920883 L33.0662461,5.1920883 C31.634738,5.1920883 30.4699053,4.02725556 30.4699053,2.59574747 C30.4699053,1.16423937 31.6347098,0 33.0662461,0 L108.10066,0 C109.532168,0 110.696464,1.16423937 110.696464,2.59574747 C110.696464,4.02725556 109.532168,5.1920883 108.10066,5.1920883 Z"></path>
                    <path d="M108.10066,60.5522865 L33.0662461,60.5522865 C31.634738,60.5522865 30.4699053,59.3874538 30.4699053,57.9559457 C30.4699053,56.5244376 31.6347098,55.3601982 33.0662461,55.3601982 L108.10066,55.3601982 C109.532168,55.3601982 110.696464,56.5244376 110.696464,57.9559457 C110.696464,59.3874538 109.532168,60.5522865 108.10066,60.5522865 Z"></path>
                    <path d="M138.570565,32.8903557 L2.59634083,32.8903557 C1.16483274,32.8903557 0,31.7255229 0,30.2940149 C0,28.8625068 1.16480448,27.6982674 2.59634083,27.6982674 L138.570565,27.6982674 C140.002073,27.6982674 141.166369,28.8625068 141.166369,30.2940149 C141.166369,31.7255229 140.002073,32.8903557 138.570565,32.8903557 Z"></path>
                </g>
                <path d="M152.65186,121.992615 L103.530701,121.992615 C102.099193,121.992615 100.93436,120.827782 100.93436,119.396274 C100.93436,117.964766 102.099165,116.800527 103.530701,116.800527 L152.65186,116.800527 C154.083368,116.800527 155.247664,117.964766 155.247664,119.396274 C155.247664,120.827782 154.083368,121.992615 152.65186,121.992615 Z" id="Path" fill="#E6E6E6"></path>
            </g>
            <circle id="Oval" fill="#004671" cx="769.604694" cy="596.611082" r="28.255494"></circle>
            <circle id="Oval" fill="#004671" cx="371.202201" cy="452.508006" r="28.255494"></circle>
            <circle id="Oval" fill="#004671" cx="506.828572" cy="839.60833" r="28.255494"></circle>
            <g id="Group" transform="translate(532.6479, 14.5478)" fill="#F2F2F2">
                <ellipse id="Oval" cx="35.215585" cy="35.3808797" rx="35.215585" ry="34.4736523"></ellipse>
                <path d="M317.524307,23.5872343 L127.972438,23.5872343 C121.469662,23.5872343 116.178821,18.2964213 116.178821,11.7936171 C116.178821,5.29081299 121.469662,0 127.972438,0 L317.524307,0 C324.027082,0 329.317924,5.29081299 329.317924,11.7936171 C329.317924,18.2964213 324.027082,23.5872343 317.524307,23.5872343 L317.524307,23.5872343 Z" id="Path"></path>
                <path d="M465.451227,63.5040814 L127.972438,63.5040814 C121.469662,63.5040814 116.178821,58.2132685 116.178821,51.7104643 C116.178821,45.2076602 121.469662,39.9168472 127.972438,39.9168472 L465.451227,39.9168472 C471.954002,39.9168472 477.244844,45.2076602 477.244844,51.7104643 C477.244844,58.2132685 471.954002,63.5040814 465.451227,63.5040814 Z" id="Path"></path>
            </g>
            <g id="Group" transform="translate(35.3512, 184.0808)" fill="#F2F2F2">
                <ellipse id="Oval" cx="22.7910227" cy="22.8979698" rx="22.7910227" ry="22.3108206"></ellipse>
                <path d="M205.497093,15.2653132 L82.8219106,15.2653132 C78.613396,15.2653132 75.189254,11.8411711 75.189254,7.63265659 C75.189254,3.42414204 78.613396,0 82.8219106,0 L205.497093,0 C209.705608,0 213.12975,3.42414204 213.12975,7.63265659 C213.12975,11.8411711 209.705608,15.2653132 205.497122,15.2653132 L205.497093,15.2653132 Z" id="Path"></path>
                <path d="M301.233206,41.098944 L82.8219106,41.098944 C78.613396,41.098944 75.189254,37.674802 75.189254,33.4662874 C75.189254,29.2577729 78.613396,25.8336308 82.8219106,25.8336308 L301.233206,25.8336308 C305.441749,25.8336308 308.865834,29.2577729 308.865834,33.4662874 C308.865834,37.674802 305.441692,41.098944 301.233206,41.098944 Z" id="Path"></path>
            </g>
            <g id="Group" transform="translate(719.1341, 978.0603)" fill="#F2F2F2">
                <ellipse id="Oval" cx="22.7909945" cy="22.8979133" rx="22.7909945" ry="22.3107923"></ellipse>
                <path d="M205.497065,15.2652567 L82.8218541,15.2652567 C78.6133678,15.2652567 75.1892258,11.8411146 75.1892258,7.63262833 C75.1892258,3.42414204 78.6133678,0 82.8218541,0 L205.497065,0 C209.705552,0 213.129694,3.42414204 213.129694,7.63262833 C213.129694,11.8411146 209.705552,15.2652567 205.497065,15.2652567 L205.497065,15.2652567 Z" id="Path"></path>
                <path d="M301.233234,41.0988592 L82.8219106,41.0988592 C78.6134243,41.0988592 75.1892823,37.6747172 75.1892823,33.4662309 C75.1892823,29.2577446 78.6134243,25.8336026 82.8219106,25.8336026 L301.233234,25.8336026 C305.44172,25.8336026 308.865862,29.2577446 308.865862,33.4662309 C308.865862,37.6747172 305.44172,41.0988592 301.233234,41.0988592 L301.233234,41.0988592 Z" id="Path"></path>
            </g>
            <rect id="Rectangle" fill="#E6E6E6" x="462.325745" y="302.301885" width="5.6510988" height="268.427193"></rect>
            <circle id="Oval" fill="#E6E6E6" cx="465.151295" cy="570.729078" r="16.9533246"></circle>
            <circle id="Oval" fill="#E6E6E6" cx="722.27629" cy="765.692015" r="16.9532964"></circle>
            <circle id="Oval" fill="#E6E6E6" cx="264.537287" cy="533.996936" r="16.9532964"></circle>
            <polygon id="Rectangle" fill="#E6E6E6" transform="translate(212.0004, 538.2518) rotate(-1.734) translate(-212.0004, -538.2518)" points="165.621997 535.424973 258.378766 535.424973 258.378766 541.078671 165.621997 541.078671"></polygon>
            <polygon id="Path" fill="#E6E6E6" points="860.194323 830.594122 719.606682 830.594122 719.606682 765.692015 725.257781 765.692015 725.257781 824.943023 860.194323 824.943023"></polygon>
            <circle id="Oval" fill="#E6E6E6" cx="257.578552" cy="719.113228" r="16.9532964"></circle>
            <polygon id="Path" fill="#E6E6E6" points="396.648308 786.840885 256.060639 786.840885 256.060639 721.938778 261.711738 721.938778 261.711738 781.189786 396.648308 781.189786"></polygon>
            <rect id="Rectangle" fill="#E6E6E6" x="148.739435" y="674.383171" width="675.256661" height="5.6510988"></rect>
        </g>
    </g>
</svg>