
<svg width="1028px" height="1098px" viewBox="0 0 1028 891.621436" version="1.1" xmlns="http://www.w3.org/2000/svg" xmlns:xlink="http://www.w3.org/1999/xlink">
    <g id="Front-Page-Images" stroke="none" stroke-width="1" fill="none" fill-rule="evenodd">
        <g id="undraw_secure_files_re_6vdh" fill-rule="nonzero">
            <polygon id="Path" fill="#FFFFFF" points="753.733237 677.031858 186.715947 833.407377 0 156.375448 567.01729 0"></polygon>
            <path d="M753.733237,677.031858 L186.715947,833.407377 L0,156.375448 L567.01729,0 L753.733237,677.031858 Z M193.960318,820.645516 L740.971429,669.787487 L559.772919,12.7617376 L12.7617904,163.619784 L193.960318,820.645516 Z" id="Shape" fill="#F1F1F1"></path>
            <path d="M443.621829,303.299118 L301.48832,342.49759 C297.313543,343.643795 292.998749,341.194456 291.842989,337.022313 L252.644535,194.888716 C251.498319,190.713937 253.947662,186.399137 258.119811,185.243385 L400.253408,146.044931 C404.428183,144.898716 408.742978,147.348061 409.898722,151.520207 L449.097193,293.653805 C450.243403,297.828606 447.794011,302.143413 443.621829,303.299118 L443.621829,303.299118 Z M258.953713,188.267602 C256.450357,188.960965 254.980707,191.549915 255.66854,194.054797 L294.867012,336.188394 C295.560375,338.69175 298.149325,340.1614 300.654207,339.473567 L442.787716,300.275095 C445.291072,299.581732 446.760722,296.992782 446.072889,294.4879 L406.874417,152.354391 C406.181054,149.851035 403.592104,148.381385 401.087222,149.069218 L258.953713,188.267602 Z" id="Shape" fill="#E5E5E5"></path>
            <path d="M407.591765,331.946939 L265.458256,371.145411 C261.700948,372.177067 257.817587,369.972633 256.777464,366.21766 L217.578834,224.084063 C216.547177,220.326755 218.751611,216.443394 222.506584,215.403271 L364.640093,176.204799 C368.397401,175.173142 372.280762,177.377576 373.320886,181.132549 L412.519357,323.266147 C413.551035,327.023408 411.346681,330.906754 407.591765,331.946939 L407.591765,331.946939 Z" id="Path" fill="#004671"></path>
            <polygon id="Rectangle" fill="#F1F1F1" transform="translate(376.0404, 413.708) rotate(-15.4181) translate(-376.0404, -413.708)" points="170.317086 405.758137 581.763766 405.758137 581.763766 421.657898 170.317086 421.657898"></polygon>
            <polygon id="Rectangle" fill="#F1F1F1" transform="translate(387.0618, 453.6717) rotate(-15.4181) translate(-387.0618, -453.6717)" points="181.3385 445.72178 592.78518 445.72178 592.78518 461.621542 181.3385 461.621542"></polygon>
            <polygon id="Rectangle" fill="#F1F1F1" transform="translate(398.0832, 493.6353) rotate(-15.4181) translate(-398.0832, -493.6353)" points="192.359897 485.685429 603.806577 485.685429 603.806577 501.58519 192.359897 501.58519"></polygon>
            <polygon id="Rectangle" fill="#F1F1F1" transform="translate(417.481, 563.9714) rotate(-15.4181) translate(-417.481, -563.9714)" points="211.757615 556.021476 623.204295 556.021476 623.204295 571.921237 211.757615 571.921237"></polygon>
            <polygon id="Rectangle" fill="#F1F1F1" transform="translate(428.5024, 603.935) rotate(-15.4181) translate(-428.5024, -603.935)" points="222.779012 595.985142 634.225692 595.985142 634.225692 611.884903 222.779012 611.884903"></polygon>
            <polygon id="Rectangle" fill="#F1F1F1" transform="translate(439.5238, 643.8987) rotate(-15.4181) translate(-439.5238, -643.8987)" points="233.800448 635.948802 645.247128 635.948802 645.247128 651.848564 233.800448 651.848564"></polygon>
            <polygon id="Path" fill="#FFFFFF" points="935.239247 831.145609 347.053991 831.145609 347.053991 128.838698 935.239247 128.838698"></polygon>
            <path d="M935.239247,831.145609 L347.053991,831.145609 L347.053991,128.838698 L935.239247,128.838698 L935.239247,831.145609 Z M357.430507,820.769076 L924.862714,820.769076 L924.862714,139.215214 L357.430507,139.215214 L357.430507,820.769076 Z" id="Shape" fill="#E5E5E5"></path>
            <rect id="Rectangle" fill="#004671" x="491.859943" y="430.751512" width="336.28965" height="15.8997615"></rect>
            <rect id="Rectangle" fill="#004671" x="491.859943" y="472.090885" width="336.28965" height="15.8997615"></rect>
            <rect id="Rectangle" fill="#004671" x="491.859943" y="513.430241" width="336.28965" height="15.8997615"></rect>
            <circle id="Oval" fill="#004671" cx="464.52016" cy="441.030803" r="10.3765154"></circle>
            <rect id="Rectangle" fill="#E5E5E5" x="491.859943" y="252.621175" width="336.28965" height="15.8997615"></rect>
            <rect id="Rectangle" fill="#E5E5E5" x="491.859943" y="293.960548" width="336.28965" height="15.8997615"></rect>
            <rect id="Rectangle" fill="#E5E5E5" x="491.859943" y="335.299921" width="336.28965" height="15.8997615"></rect>
            <circle id="Oval" fill="#E5E5E5" cx="464.52016" cy="261.171067" r="10.3765154"></circle>
            <rect id="Rectangle" fill="#E5E5E5" x="491.859943" y="610.611248" width="336.28965" height="15.8997615"></rect>
            <rect id="Rectangle" fill="#E5E5E5" x="491.859943" y="651.950621" width="336.28965" height="15.8997615"></rect>
            <rect id="Rectangle" fill="#E5E5E5" x="491.859943" y="693.289994" width="336.28965" height="15.8997615"></rect>
            <circle id="Oval" fill="#E5E5E5" cx="464.52016" cy="619.16114" r="10.3765154"></circle>
            <circle id="Oval" fill="#004671" cx="907.778809" cy="771.400245" r="120.221191"></circle>
            <path d="M941.087052,763.730993 L941.087052,740.727953 C941.095707,728.8223 934.749087,717.817317 924.439929,711.861991 C914.130771,705.906664 901.426865,705.906664 891.117707,711.861991 C880.808549,717.817317 874.461929,728.8223 874.470584,740.727953 L874.470584,763.730993 C865.221408,764.147462 857.935595,771.764937 857.931001,781.023483 L857.931001,835.382205 L957.626635,835.382205 L957.626635,781.023483 C957.622041,771.764937 950.336228,764.147462 941.087052,763.730993 Z M907.778809,719.147182 C919.691558,719.161055 929.345068,728.815203 929.358155,740.727953 L929.358155,763.690909 L886.199481,763.690909 L886.199481,740.727953 C886.212558,728.815206 895.866063,719.161055 907.778809,719.147182 Z" id="Shape" fill="#FFFFFF"></path>
            <path d="M916.740134,790.575057 C916.741584,786.308911 913.735354,782.633187 909.553723,781.788218 C905.372092,780.943249 901.174517,783.163322 899.519395,787.095317 C897.864273,791.027311 899.210526,795.580988 902.737621,797.980906 L902.737621,817.459329 L912.818554,817.459329 L912.818554,797.980906 C915.272088,796.314552 916.740774,793.540958 916.740134,790.575057 Z" id="Path" fill="#004671"></path>
        </g>
    </g>
</svg>