
<svg width="1028px" height="1098px" viewBox="0 0 1028 1098.98823" version="1.1" xmlns="http://www.w3.org/2000/svg" xmlns:xlink="http://www.w3.org/1999/xlink">
    <g id="Front-Page-Images" stroke="none" stroke-width="1" fill="none" fill-rule="evenodd">
        <g id="undraw_visualization_re_1kag" fill-rule="nonzero">
            <path d="M935.740026,1098.98823 C935.447616,1098.98823 935.153439,1098.98823 934.860163,1098.98823 L159.308016,1089.92709 C115.227417,1089.35812 79.7226793,1053.11355 80.0326938,1009.07083 C25.2800693,827.442815 1.15548266,684.418025 1.81517674,545.363647 C2.50391158,400.226819 31.1793286,252.589545 92.0531667,80.7713175 C92.7604082,37.0227575 128.63243,1.79632382 172.334291,1.79632382 C172.617014,1.79632382 172.899738,1.79632382 173.182443,1.79632382 L948.73634,10.8741927 C992.917337,11.4440408 1028.46964,47.8409793 1027.99531,92.0087723 L1027.99531,92.01054 L1026.42102,226.53346 L1025.25492,226.546664 L1015.99561,1019.72788 C1015.42841,1063.61384 979.509708,1098.98823 935.740026,1098.98823 Z M172.333425,5.40387081 C130.497857,5.40387081 96.1803628,39.1990824 95.6563124,81.1174436 L95.6527951,81.4160223 L95.5523971,81.696978 C-20.6958804,409.672856 -23.8331115,652.145631 83.5662681,1008.29048 L83.6455439,1008.5547 L83.6429104,1008.83125 C83.203421,1051.01383 117.165969,1085.77523 159.352082,1086.31952 L934.900694,1095.38067 C935.180766,1095.38067 935.46174,1095.38067 935.741812,1095.38067 C977.542152,1095.38067 1011.84642,1061.59691 1012.3881,1019.68383 L1020.93753,287.641554 L1020.97453,284.036641 L1021.96624,200.33291 L1023.11738,200.323224 L1024.38759,91.9682235 C1024.84101,49.7873952 990.885494,15.0260103 948.692346,14.4817036 L173.142832,5.40387081 C172.87508,5.40387081 172.600293,5.40387081 172.333425,5.40387081 Z" id="Shape" fill="#F2F2F2"></path>
            <polygon id="Path" fill="#F2F2F2" points="866.841596 773.960227 866.787537 777.567774 423.780695 777.567774 423.780695 773.960227"></polygon>
            <polygon id="Path" fill="#F2F2F2" points="867.725536 697.299854 867.689424 700.9074 423.780695 700.9074 423.780695 697.299854"></polygon>
            <polygon id="Path" fill="#F2F2F2" points="868.627422 620.63948 868.591311 624.247027 423.780695 624.247027 423.780695 620.63948"></polygon>
            <path d="M865.849539,857.655263 L865.813427,861.26281 L413.896052,861.26281 L413.896052,482.650826 L417.503599,482.686829 L417.503599,709.258908 C417.503599,732.455417 422.824749,754.407304 432.312616,773.960263 C432.907789,775.168755 433.503052,776.377265 434.134445,777.56781 C458.846052,825.151355 508.594161,857.655281 565.918136,857.655281 L865.849539,857.655281 L865.849539,857.655263 Z" id="Path" fill="#F2F2F2"></path>
            <path d="M239.148586,1045.87827 C195.87238,1045.32327 161.212241,1009.84357 161.668867,966.565916 C58.6008344,624.792163 52.1461391,381.744886 173.67123,38.8516215 C173.91427,25.20557 177.757642,11.8664666 184.81184,0.183515825 L169.550401,0 C126.273492,-0.451899464 90.7930505,34.207987 90.2365503,77.4836337 C-31.2887928,420.377656 -24.833845,663.424176 78.2341873,1005.19795 C77.7768225,1048.47532 112.437719,1083.9553 155.713907,1084.5103 L931.266722,1093.57959 C959.309664,1093.80931 985.326102,1078.99882 999.439962,1054.76582 L239.148586,1045.87827 L239.148586,1045.87827 Z" id="Path" fill="#F2F2F2"></path>
            <circle id="Oval" fill="#004671" cx="680.529868" cy="622.443253" r="16.2339615"></circle>
            <circle id="Oval" fill="#004671" cx="529.012895" cy="775.764001" r="16.2339615"></circle>
            <g id="Group" transform="translate(436.4469, 183.2163)">
                <path d="M-3.65218966e-14,101.754308 C9.95554901,81.0938143 35.783908,69.5873989 57.8020659,76.0037278 C70.2053717,79.6181833 80.6089239,87.9229729 92.0137869,93.9922017 C103.41865,100.061413 117.56772,103.830505 129.040116,97.8899398 C148.759834,87.67876 147.557402,57.1923544 164.709358,43.0875311 C176.125675,33.6993771 192.877067,34.1381631 206.987247,38.5395688 C221.097428,42.9409745 234.000812,50.7114684 248.202642,54.8075133 C274.630828,62.4298453 304.682668,56.0196852 325.700417,38.2769754 C325.910593,38.0995563 326.117829,37.9208204 326.32216,37.7408038 C336.727534,28.5737743 353.032781,36.1282303 352.651247,49.990428 L349.990572,146.661594 L1.86230594,146.661594 L-3.65218966e-14,101.754308 L-3.65218966e-14,101.754308 Z" id="Path" fill="#F2F2F2"></path>
                <path d="M305.526546,84.334131 C306.673493,83.868541 306.673385,82.2613969 305.526221,81.7960414 C297.522968,78.5496098 288.560252,73.9277649 281.710783,68.9004498 C280.614143,68.0955519 279.148793,69.2051973 279.611515,70.4843613 L283.510264,81.2608798 L216.799595,81.2608798 L216.799595,84.8684268 L283.510372,84.8684268 L279.611083,95.6488955 C279.14836,96.9280776 280.61371,98.0375967 281.71035,97.2326988 C288.559927,92.2051673 297.522986,87.5827812 305.526564,84.334131 L305.526546,84.334131 Z" id="Path" fill="#3F3D56"></path>
                <path d="M155.441534,66.9590303 C156.072476,65.8940464 155.099304,64.6150267 153.904538,64.9392369 C145.569373,67.2011689 135.637832,68.9493861 127.142654,69.0953836 C125.782537,69.1187605 125.288141,70.88911 126.430904,71.6270157 L136.058599,77.843198 L82.9654097,118.234124 L85.1496531,121.10528 L138.242932,80.7143004 L141.666783,91.6550704 C142.073011,92.9533003 143.91102,92.9491156 144.296468,91.6445544 C146.703875,83.4960979 151.038631,74.3904689 155.441516,66.9590664 L155.441534,66.9590303 Z" id="Path" fill="#3F3D56"></path>
                <circle id="Oval" fill="#004671" cx="337.9962" cy="30.9218365" r="30.9218365"></circle>
                <circle id="Oval" fill="#004671" opacity="0.7" cx="186.479227" cy="30.9218365" r="30.9218365"></circle>
                <circle id="Oval" fill="#004671" opacity="0.25" cx="49.392441" cy="59.7822124" r="30.9218365"></circle>
            </g>
            <g id="Group" transform="translate(296.8601, 388.1152)" fill="#F2F2F2">
                <path d="M564.093688,3.43944439 L84.3022584,0.000730595403 C68.8804098,-0.109804644 56.2546447,12.3362866 56.1433789,27.7581171 C56.0335743,43.1799656 68.4796655,55.8057307 83.901496,55.9162659 L563.692926,59.3549797 C579.114774,59.465515 591.740539,47.0194237 591.851805,31.5975932 C591.96161,16.1757447 579.515519,3.54997963 564.093688,3.43944439 L564.093688,3.43944439 Z" id="Path"></path>
                <circle id="Oval" cx="12.6264145" cy="22.1218841" r="12.6264145"></circle>
            </g>
            <g id="Group" transform="translate(296.8601, 77.8662)" fill="#F2F2F2">
                <path d="M564.093688,3.43944439 L84.3022584,0.000730595403 C68.8804098,-0.109804644 56.2546447,12.3362866 56.1433789,27.7581171 C56.0335743,43.1799656 68.4796655,55.8057307 83.901496,55.9162659 L563.692926,59.3549797 C579.114774,59.465515 591.740539,47.0194237 591.851805,31.5975932 C591.96161,16.1757447 579.515519,3.54997963 564.093688,3.43944439 L564.093688,3.43944439 Z" id="Path"></path>
                <circle id="Oval" cx="12.6264145" cy="22.1218841" r="12.6264145"></circle>
            </g>
        </g>
    </g>
</svg>